<?xml version="1.0" encoding="utf-8"?>
<!-- Generator: Adobe Illustrator 24.0.1, SVG Export Plug-In . SVG Version: 6.00 Build 0)  -->
<svg version="1.1" id="Layer_2" xmlns="http://www.w3.org/2000/svg" xmlns:xlink="http://www.w3.org/1999/xlink" x="0px" y="0px"
	 viewBox="0 0 342 152" style="enable-background:new 0 0 342 152;" xml:space="preserve">
<style type="text/css">
	.st0{fill:#00548A;}
	.st1{fill:none;}
	.st2{display:none;fill:#00548A;}
	.st3{font-family:'Arial-Black';}
	.st4{font-size:23px;}
</style>
<g>
	<path class="st0" d="M2.7,80.5l32.5-0.2c0.8,5.4,2.5,7.5,5,10.3c4,4.6,9.8,6.9,17.2,6.9c5.6,0,9.9-1.2,12.9-3.5
		c3-2.3,4.5-5.1,4.5-8.1c0-2.9-1.4-5.6-4.3-7.9c-2.9-2.3-9.5-4.5-20-6.6C33.5,68,21.3,63.4,14,57.7c-7.4-5.7-11-13-11-21.9
		c0-5.8,1.9-11.3,5.6-16.5c3.8-5.2,9.4-9.2,17-12.2c7.6-3,17.9-4.4,31-4.4c16.1,0,26.5,3.7,34.9,9.1c8.5,5.4,13.9,12.9,15.5,24.7
		l-35.2,0.2c-1-5.1-3-7.1-6.2-9.4c-3.1-2.3-7.5-3.5-13-3.5c-4.5,0-8,0.9-10.3,2.6c-2.3,1.7-3.4,3.8-3.4,6.3c0,1.8,1,3.4,2.8,4.9
		c1.8,1.5,6.2,2.9,13.1,4.2C72,45,82.9,49.4,90.3,52.8c7.4,3.4,12.2,6.7,15.5,11.7c3.4,5,4.5,10,4.5,16.2c0,7.3-1.3,13.8-5.7,19.9
		c-4.5,6.1-9.2,11.3-17.3,14.5c-8,3.2-18.2,4.8-30.4,4.8c-21.5,0-33.5-3.6-41.8-11C6.8,101.4,3.8,92,2.7,80.5z"/>
	<path class="st0" d="M115.8,2.4h32.3l42.1,64.9V2.4h32.6v117.3h-32.6l-41.9-64.4v64.4h-32.5V2.4z"/>
	<path class="st0" d="M230.5,2.4h110.2v29h-37v88.4h-36.3V31.4h-37V2.4z"/>
	<rect x="-12" y="133.7" class="st1" width="368.3" height="47.5"/>
	<text transform="matrix(1 0 0 1 3.4683 150.1874)" class="st2 st3 st4">solutions &amp; transformation</text>
</g>
<g>
	<path class="st0" d="M13,132.1c-0.1,0.2-0.2,0.3-0.3,0.3c-0.1,0.1-0.2,0.1-0.4,0.1c-0.2,0-0.3-0.1-0.5-0.2
		c-0.2-0.1-0.4-0.3-0.7-0.4c-0.3-0.1-0.6-0.3-0.9-0.4c-0.3-0.1-0.8-0.2-1.2-0.2c-0.4,0-0.8,0.1-1.1,0.2c-0.3,0.1-0.6,0.2-0.8,0.4
		c-0.2,0.2-0.4,0.4-0.5,0.7c-0.1,0.3-0.2,0.5-0.2,0.8c0,0.4,0.1,0.7,0.3,1c0.2,0.3,0.5,0.5,0.9,0.7c0.4,0.2,0.8,0.3,1.2,0.5
		c0.5,0.1,0.9,0.3,1.4,0.5c0.5,0.2,1,0.4,1.4,0.6c0.5,0.2,0.9,0.5,1.2,0.8c0.4,0.3,0.6,0.7,0.9,1.2c0.2,0.5,0.3,1.1,0.3,1.8
		c0,0.7-0.1,1.4-0.4,2.1c-0.3,0.7-0.6,1.2-1.1,1.7c-0.5,0.5-1.1,0.9-1.8,1.1c-0.7,0.3-1.5,0.4-2.4,0.4c-0.5,0-1-0.1-1.6-0.2
		c-0.5-0.1-1-0.3-1.5-0.4c-0.5-0.2-0.9-0.4-1.3-0.7c-0.4-0.3-0.8-0.6-1.1-0.9l0.9-1.5c0.1-0.1,0.2-0.2,0.3-0.3
		c0.1-0.1,0.3-0.1,0.4-0.1c0.2,0,0.4,0.1,0.6,0.2c0.2,0.2,0.5,0.3,0.8,0.5c0.3,0.2,0.7,0.4,1.1,0.5c0.4,0.2,0.9,0.2,1.5,0.2
		c0.9,0,1.6-0.2,2-0.6c0.5-0.4,0.7-1,0.7-1.8c0-0.4-0.1-0.8-0.3-1.1c-0.2-0.3-0.5-0.5-0.9-0.7c-0.4-0.2-0.8-0.3-1.2-0.5
		s-0.9-0.3-1.4-0.4c-0.5-0.2-0.9-0.3-1.4-0.5c-0.5-0.2-0.9-0.5-1.2-0.8c-0.4-0.3-0.6-0.8-0.9-1.3c-0.2-0.5-0.3-1.2-0.3-1.9
		c0-0.6,0.1-1.2,0.4-1.8c0.2-0.6,0.6-1.1,1-1.5c0.5-0.4,1-0.8,1.7-1.1c0.7-0.3,1.4-0.4,2.3-0.4c1,0,1.9,0.2,2.7,0.5
		c0.8,0.3,1.5,0.7,2.1,1.3L13,132.1z"/>
	<path class="st0" d="M26.4,133.9l-6.4,15c-0.1,0.2-0.2,0.3-0.3,0.5c-0.1,0.1-0.3,0.2-0.6,0.2H17l2.2-4.7l-4.8-10.9h2.5
		c0.2,0,0.4,0.1,0.5,0.2c0.1,0.1,0.2,0.2,0.3,0.4l2.5,6.1c0.1,0.2,0.2,0.4,0.2,0.6c0.1,0.2,0.1,0.4,0.2,0.6c0.1-0.2,0.1-0.4,0.2-0.6
		c0.1-0.2,0.1-0.4,0.2-0.6l2.4-6.1c0.1-0.2,0.2-0.3,0.3-0.4c0.1-0.1,0.3-0.1,0.5-0.1H26.4z"/>
	<path class="st0" d="M34.8,136.2c-0.1,0.1-0.2,0.2-0.2,0.3c-0.1,0-0.2,0.1-0.3,0.1c-0.1,0-0.3,0-0.4-0.1c-0.2-0.1-0.3-0.2-0.5-0.3
		c-0.2-0.1-0.4-0.2-0.7-0.3c-0.3-0.1-0.6-0.1-0.9-0.1c-0.6,0-1,0.1-1.3,0.4s-0.5,0.5-0.5,0.9c0,0.3,0.1,0.5,0.2,0.6
		c0.2,0.2,0.4,0.3,0.7,0.5c0.3,0.1,0.6,0.2,0.9,0.3c0.3,0.1,0.7,0.2,1,0.3c0.4,0.1,0.7,0.3,1,0.4c0.3,0.2,0.7,0.4,0.9,0.6
		c0.3,0.2,0.5,0.5,0.7,0.9c0.2,0.3,0.2,0.7,0.2,1.2c0,0.6-0.1,1.1-0.3,1.6c-0.2,0.5-0.5,0.9-0.9,1.2c-0.4,0.3-0.9,0.6-1.5,0.8
		c-0.6,0.2-1.3,0.3-2,0.3c-0.4,0-0.8,0-1.2-0.1c-0.4-0.1-0.8-0.2-1.1-0.3c-0.4-0.1-0.7-0.3-1-0.5c-0.3-0.2-0.6-0.4-0.8-0.6l0.7-1.1
		c0.1-0.1,0.2-0.2,0.3-0.3c0.1-0.1,0.3-0.1,0.4-0.1c0.2,0,0.3,0,0.5,0.1c0.2,0.1,0.3,0.2,0.5,0.3c0.2,0.1,0.4,0.2,0.7,0.3
		c0.3,0.1,0.6,0.1,1.1,0.1c0.3,0,0.6,0,0.9-0.1c0.2-0.1,0.4-0.2,0.6-0.3c0.2-0.1,0.3-0.3,0.3-0.5c0.1-0.2,0.1-0.3,0.1-0.5
		c0-0.3-0.1-0.5-0.2-0.7c-0.2-0.2-0.4-0.3-0.7-0.5c-0.3-0.1-0.6-0.2-0.9-0.3c-0.3-0.1-0.7-0.2-1.1-0.3c-0.4-0.1-0.7-0.3-1.1-0.4
		c-0.3-0.2-0.7-0.4-0.9-0.6c-0.3-0.3-0.5-0.6-0.7-0.9c-0.2-0.4-0.2-0.8-0.2-1.3c0-0.5,0.1-0.9,0.3-1.4c0.2-0.4,0.5-0.8,0.8-1.1
		c0.4-0.3,0.8-0.6,1.4-0.8c0.6-0.2,1.2-0.3,1.9-0.3c0.8,0,1.5,0.1,2.2,0.4c0.7,0.3,1.2,0.6,1.7,1.1L34.8,136.2z"/>
	<path class="st0" d="M41.6,145.8c-1,0-1.8-0.3-2.4-0.9c-0.5-0.6-0.8-1.4-0.8-2.4V136h-1.2c-0.2,0-0.3,0-0.4-0.1
		c-0.1-0.1-0.2-0.2-0.2-0.4v-1.1l1.9-0.3l0.6-3.2c0-0.2,0.1-0.3,0.2-0.4c0.1-0.1,0.2-0.1,0.4-0.1h1.5v3.7h3.1v2h-3.1v6.4
		c0,0.4,0.1,0.7,0.3,0.9c0.2,0.2,0.4,0.3,0.7,0.3c0.2,0,0.3,0,0.4-0.1c0.1,0,0.2-0.1,0.3-0.1c0.1,0,0.2-0.1,0.2-0.1
		c0.1,0,0.1-0.1,0.2-0.1c0.1,0,0.2,0,0.2,0.1c0.1,0,0.1,0.1,0.2,0.2l0.8,1.4c-0.4,0.3-0.9,0.6-1.4,0.8
		C42.7,145.7,42.1,145.8,41.6,145.8z"/>
	<path class="st0" d="M48.3,140.1c0,0.6,0.2,1.1,0.3,1.6c0.2,0.4,0.4,0.8,0.7,1.1c0.3,0.3,0.6,0.5,1,0.6c0.4,0.1,0.8,0.2,1.3,0.2
		s0.9-0.1,1.2-0.2c0.3-0.1,0.6-0.2,0.9-0.4c0.2-0.1,0.5-0.2,0.7-0.4c0.2-0.1,0.4-0.2,0.5-0.2c0.2,0,0.4,0.1,0.5,0.3l0.8,1
		c-0.3,0.4-0.7,0.7-1.1,0.9c-0.4,0.2-0.8,0.4-1.2,0.6c-0.4,0.1-0.9,0.3-1.3,0.3c-0.4,0.1-0.9,0.1-1.3,0.1c-0.8,0-1.6-0.1-2.3-0.4
		c-0.7-0.3-1.3-0.7-1.8-1.2c-0.5-0.5-0.9-1.2-1.2-2c-0.3-0.8-0.4-1.7-0.4-2.7c0-0.8,0.1-1.6,0.4-2.3c0.3-0.7,0.6-1.3,1.1-1.8
		c0.5-0.5,1.1-0.9,1.8-1.2c0.7-0.3,1.5-0.5,2.4-0.5c0.7,0,1.4,0.1,2,0.4c0.6,0.2,1.2,0.6,1.6,1c0.5,0.5,0.8,1,1.1,1.7
		c0.3,0.7,0.4,1.4,0.4,2.3c0,0.4,0,0.7-0.1,0.9c-0.1,0.1-0.3,0.2-0.5,0.2H48.3z M53.6,138.4c0-0.4-0.1-0.7-0.2-1
		c-0.1-0.3-0.3-0.6-0.5-0.9c-0.2-0.2-0.5-0.4-0.8-0.6c-0.3-0.1-0.7-0.2-1.1-0.2c-0.8,0-1.5,0.2-1.9,0.7c-0.5,0.5-0.8,1.1-0.9,2H53.6
		z"/>
	<path class="st0" d="M58.3,145.6v-11.7H60c0.4,0,0.6,0.2,0.7,0.5l0.2,0.9c0.2-0.2,0.4-0.4,0.6-0.6c0.2-0.2,0.5-0.4,0.7-0.5
		c0.3-0.1,0.5-0.2,0.8-0.3c0.3-0.1,0.6-0.1,1-0.1c0.7,0,1.3,0.2,1.8,0.6c0.5,0.4,0.8,0.9,1.1,1.6c0.2-0.4,0.4-0.7,0.7-1
		c0.3-0.3,0.6-0.5,0.9-0.7c0.3-0.2,0.7-0.3,1-0.4c0.4-0.1,0.7-0.1,1.1-0.1c0.6,0,1.2,0.1,1.7,0.3c0.5,0.2,0.9,0.5,1.3,0.9
		c0.3,0.4,0.6,0.8,0.8,1.4c0.2,0.5,0.3,1.2,0.3,1.9v7.5H72v-7.5c0-0.7-0.2-1.3-0.5-1.7c-0.3-0.4-0.8-0.6-1.4-0.6
		c-0.3,0-0.6,0-0.8,0.1c-0.2,0.1-0.5,0.2-0.7,0.4c-0.2,0.2-0.3,0.4-0.4,0.7c-0.1,0.3-0.2,0.6-0.2,1v7.5h-2.8v-7.5
		c0-0.8-0.2-1.4-0.5-1.7c-0.3-0.4-0.8-0.5-1.4-0.5c-0.4,0-0.8,0.1-1.2,0.3c-0.4,0.2-0.7,0.5-1,0.8v8.6H58.3z"/>
	<path class="st0" d="M84.7,136.2c-0.1,0.1-0.2,0.2-0.2,0.3c-0.1,0-0.2,0.1-0.3,0.1c-0.1,0-0.3,0-0.4-0.1c-0.2-0.1-0.3-0.2-0.5-0.3
		c-0.2-0.1-0.4-0.2-0.7-0.3c-0.3-0.1-0.6-0.1-0.9-0.1c-0.6,0-1,0.1-1.3,0.4s-0.5,0.5-0.5,0.9c0,0.3,0.1,0.5,0.2,0.6
		c0.2,0.2,0.4,0.3,0.7,0.5c0.3,0.1,0.6,0.2,0.9,0.3c0.3,0.1,0.7,0.2,1,0.3c0.4,0.1,0.7,0.3,1,0.4c0.3,0.2,0.7,0.4,0.9,0.6
		c0.3,0.2,0.5,0.5,0.7,0.9c0.2,0.3,0.2,0.7,0.2,1.2c0,0.6-0.1,1.1-0.3,1.6c-0.2,0.5-0.5,0.9-0.9,1.2c-0.4,0.3-0.9,0.6-1.5,0.8
		c-0.6,0.2-1.3,0.3-2,0.3c-0.4,0-0.8,0-1.2-0.1c-0.4-0.1-0.8-0.2-1.1-0.3c-0.4-0.1-0.7-0.3-1-0.5c-0.3-0.2-0.6-0.4-0.8-0.6l0.7-1.1
		c0.1-0.1,0.2-0.2,0.3-0.3c0.1-0.1,0.3-0.1,0.4-0.1c0.2,0,0.3,0,0.5,0.1c0.2,0.1,0.3,0.2,0.5,0.3c0.2,0.1,0.4,0.2,0.7,0.3
		c0.3,0.1,0.6,0.1,1.1,0.1c0.3,0,0.6,0,0.9-0.1c0.2-0.1,0.4-0.2,0.6-0.3c0.2-0.1,0.3-0.3,0.3-0.5c0.1-0.2,0.1-0.3,0.1-0.5
		c0-0.3-0.1-0.5-0.2-0.7c-0.2-0.2-0.4-0.3-0.7-0.5c-0.3-0.1-0.6-0.2-0.9-0.3c-0.3-0.1-0.7-0.2-1.1-0.3c-0.4-0.1-0.7-0.3-1.1-0.4
		c-0.3-0.2-0.7-0.4-0.9-0.6c-0.3-0.3-0.5-0.6-0.7-0.9c-0.2-0.4-0.2-0.8-0.2-1.3c0-0.5,0.1-0.9,0.3-1.4c0.2-0.4,0.5-0.8,0.8-1.1
		c0.4-0.3,0.8-0.6,1.4-0.8c0.6-0.2,1.2-0.3,1.9-0.3c0.8,0,1.5,0.1,2.2,0.4c0.7,0.3,1.2,0.6,1.7,1.1L84.7,136.2z"/>
	<path class="st0" d="M87.1,144.1c0-0.2,0-0.5,0.1-0.7c0.1-0.2,0.2-0.4,0.4-0.5c0.2-0.2,0.3-0.3,0.5-0.4c0.2-0.1,0.4-0.1,0.7-0.1
		c0.2,0,0.5,0,0.7,0.1c0.2,0.1,0.4,0.2,0.5,0.4c0.2,0.2,0.3,0.3,0.4,0.5c0.1,0.2,0.1,0.4,0.1,0.7c0,0.2,0,0.5-0.1,0.7
		c-0.1,0.2-0.2,0.4-0.4,0.5c-0.2,0.2-0.3,0.3-0.5,0.4c-0.2,0.1-0.4,0.1-0.7,0.1c-0.2,0-0.5,0-0.7-0.1c-0.2-0.1-0.4-0.2-0.5-0.4
		c-0.2-0.2-0.3-0.3-0.4-0.5C87.2,144.6,87.1,144.3,87.1,144.1z"/>
	<path class="st0" d="M113,129.1v16.6h-1.6c-0.2,0-0.4,0-0.6-0.1c-0.2-0.1-0.3-0.2-0.5-0.4l-8.6-11c0,0.5,0.1,1,0.1,1.4v10.2H99
		v-16.6h1.6c0.1,0,0.2,0,0.3,0c0.1,0,0.2,0,0.3,0.1c0.1,0,0.1,0.1,0.2,0.1c0.1,0.1,0.1,0.2,0.2,0.3l8.7,11.1c0-0.3,0-0.5-0.1-0.8
		c0-0.3,0-0.5,0-0.7v-10.1H113z"/>
	<path class="st0" d="M118,140.1c0,0.6,0.2,1.1,0.3,1.6c0.2,0.4,0.4,0.8,0.7,1.1s0.6,0.5,1,0.6c0.4,0.1,0.8,0.2,1.3,0.2
		s0.9-0.1,1.2-0.2c0.3-0.1,0.6-0.2,0.9-0.4c0.2-0.1,0.5-0.2,0.7-0.4c0.2-0.1,0.4-0.2,0.5-0.2c0.2,0,0.4,0.1,0.5,0.3l0.8,1
		c-0.3,0.4-0.7,0.7-1.1,0.9c-0.4,0.2-0.8,0.4-1.2,0.6c-0.4,0.1-0.9,0.3-1.3,0.3c-0.4,0.1-0.9,0.1-1.3,0.1c-0.8,0-1.6-0.1-2.3-0.4
		c-0.7-0.3-1.3-0.7-1.8-1.2c-0.5-0.5-0.9-1.2-1.2-2c-0.3-0.8-0.4-1.7-0.4-2.7c0-0.8,0.1-1.6,0.4-2.3c0.3-0.7,0.6-1.3,1.1-1.8
		c0.5-0.5,1.1-0.9,1.8-1.2c0.7-0.3,1.5-0.5,2.4-0.5c0.7,0,1.4,0.1,2,0.4c0.6,0.2,1.2,0.6,1.6,1c0.5,0.5,0.8,1,1.1,1.7
		c0.3,0.7,0.4,1.4,0.4,2.3c0,0.4,0,0.7-0.1,0.9c-0.1,0.1-0.3,0.2-0.5,0.2H118z M123.4,138.4c0-0.4-0.1-0.7-0.2-1
		c-0.1-0.3-0.3-0.6-0.5-0.9c-0.2-0.2-0.5-0.4-0.8-0.6c-0.3-0.1-0.7-0.2-1.1-0.2c-0.8,0-1.5,0.2-1.9,0.7c-0.5,0.5-0.8,1.1-0.9,2
		H123.4z"/>
	<path class="st0" d="M131.9,145.8c-1,0-1.8-0.3-2.4-0.9c-0.5-0.6-0.8-1.4-0.8-2.4V136h-1.2c-0.2,0-0.3,0-0.4-0.1
		c-0.1-0.1-0.2-0.2-0.2-0.4v-1.1l1.9-0.3l0.6-3.2c0-0.2,0.1-0.3,0.2-0.4c0.1-0.1,0.2-0.1,0.4-0.1h1.5v3.7h3.1v2h-3.1v6.4
		c0,0.4,0.1,0.7,0.3,0.9c0.2,0.2,0.4,0.3,0.7,0.3c0.2,0,0.3,0,0.4-0.1c0.1,0,0.2-0.1,0.3-0.1c0.1,0,0.2-0.1,0.2-0.1
		c0.1,0,0.1-0.1,0.2-0.1c0.1,0,0.2,0,0.2,0.1c0.1,0,0.1,0.1,0.2,0.2l0.8,1.4c-0.4,0.3-0.9,0.6-1.4,0.8
		C133,145.7,132.4,145.8,131.9,145.8z"/>
	<path class="st0" d="M153.3,133.9l-3.7,11.7h-2.3c-0.3,0-0.4-0.2-0.5-0.5l-2.1-6.8c-0.1-0.2-0.1-0.5-0.2-0.7
		c-0.1-0.2-0.1-0.5-0.1-0.7c0,0.2-0.1,0.5-0.2,0.7c-0.1,0.2-0.1,0.5-0.2,0.7l-2.1,6.8c-0.1,0.3-0.3,0.5-0.6,0.5H139l-3.7-11.7h2.3
		c0.2,0,0.4,0,0.5,0.1c0.1,0.1,0.2,0.2,0.3,0.4l1.7,6.3c0.1,0.3,0.2,0.7,0.2,1c0.1,0.3,0.1,0.7,0.2,1c0.1-0.3,0.2-0.7,0.3-1
		c0.1-0.3,0.2-0.7,0.3-1l1.9-6.3c0-0.2,0.1-0.3,0.3-0.4c0.1-0.1,0.3-0.1,0.5-0.1h1.2c0.2,0,0.4,0,0.5,0.1c0.1,0.1,0.2,0.2,0.3,0.4
		l1.9,6.3c0.1,0.3,0.2,0.7,0.3,1c0.1,0.3,0.2,0.7,0.3,1c0.1-0.6,0.2-1.3,0.4-2l1.7-6.3c0.1-0.2,0.1-0.3,0.3-0.4
		c0.1-0.1,0.3-0.1,0.5-0.1H153.3z"/>
	<path class="st0" d="M159.9,133.7c0.9,0,1.7,0.1,2.4,0.4c0.7,0.3,1.3,0.7,1.8,1.2c0.5,0.5,0.9,1.2,1.2,1.9c0.3,0.7,0.4,1.6,0.4,2.5
		c0,0.9-0.1,1.8-0.4,2.5c-0.3,0.7-0.7,1.4-1.2,1.9c-0.5,0.5-1.1,0.9-1.8,1.2c-0.7,0.3-1.5,0.4-2.4,0.4c-0.9,0-1.7-0.1-2.4-0.4
		c-0.7-0.3-1.3-0.7-1.8-1.2c-0.5-0.5-0.9-1.2-1.2-1.9c-0.3-0.7-0.4-1.6-0.4-2.5c0-0.9,0.1-1.8,0.4-2.5c0.3-0.7,0.7-1.4,1.2-1.9
		c0.5-0.5,1.1-0.9,1.8-1.2C158.2,133.9,159,133.7,159.9,133.7z M159.9,143.6c1,0,1.7-0.3,2.2-1c0.5-0.7,0.7-1.6,0.7-2.9
		c0-1.3-0.2-2.2-0.7-2.9c-0.5-0.7-1.2-1-2.2-1c-1,0-1.7,0.3-2.2,1c-0.5,0.7-0.7,1.6-0.7,2.9c0,1.3,0.2,2.2,0.7,2.9
		C158.1,143.3,158.9,143.6,159.9,143.6z"/>
	<path class="st0" d="M170.5,135.9c0.4-0.7,0.8-1.3,1.3-1.7c0.5-0.4,1.1-0.6,1.8-0.6c0.5,0,1,0.1,1.3,0.4l-0.2,2.1
		c0,0.1-0.1,0.2-0.2,0.3c-0.1,0.1-0.2,0.1-0.3,0.1c-0.1,0-0.3,0-0.5-0.1c-0.2,0-0.4-0.1-0.7-0.1c-0.3,0-0.6,0-0.8,0.1
		c-0.2,0.1-0.5,0.2-0.7,0.4c-0.2,0.2-0.4,0.4-0.5,0.6c-0.1,0.2-0.3,0.5-0.4,0.8v7.2h-2.8v-11.7h1.7c0.3,0,0.5,0.1,0.6,0.2
		c0.1,0.1,0.2,0.3,0.2,0.6L170.5,135.9z"/>
	<path class="st0" d="M179.2,128.6v9.7h0.5c0.2,0,0.3,0,0.5-0.1c0.1,0,0.2-0.2,0.3-0.3l2.9-3.6c0.1-0.2,0.3-0.3,0.4-0.4
		c0.1-0.1,0.3-0.1,0.6-0.1h2.6l-3.7,4.4c-0.3,0.3-0.5,0.6-0.8,0.8c0.2,0.1,0.3,0.2,0.4,0.4c0.1,0.2,0.2,0.3,0.4,0.5l3.9,5.7h-2.6
		c-0.2,0-0.4,0-0.6-0.1c-0.2-0.1-0.3-0.2-0.4-0.4l-3-4.5c-0.1-0.2-0.2-0.3-0.3-0.3c-0.1-0.1-0.3-0.1-0.5-0.1h-0.6v5.4h-2.8v-17
		H179.2z"/>
	<path class="st0" d="M195.8,136.2c-0.1,0.1-0.2,0.2-0.2,0.3c-0.1,0-0.2,0.1-0.3,0.1c-0.1,0-0.3,0-0.4-0.1c-0.2-0.1-0.3-0.2-0.5-0.3
		c-0.2-0.1-0.4-0.2-0.7-0.3c-0.3-0.1-0.6-0.1-0.9-0.1c-0.6,0-1,0.1-1.3,0.4c-0.3,0.2-0.5,0.5-0.5,0.9c0,0.3,0.1,0.5,0.2,0.6
		c0.2,0.2,0.4,0.3,0.7,0.5c0.3,0.1,0.6,0.2,0.9,0.3c0.3,0.1,0.7,0.2,1,0.3c0.4,0.1,0.7,0.3,1,0.4c0.3,0.2,0.7,0.4,0.9,0.6
		c0.3,0.2,0.5,0.5,0.7,0.9c0.2,0.3,0.2,0.7,0.2,1.2c0,0.6-0.1,1.1-0.3,1.6c-0.2,0.5-0.5,0.9-0.9,1.2c-0.4,0.3-0.9,0.6-1.5,0.8
		c-0.6,0.2-1.3,0.3-2,0.3c-0.4,0-0.8,0-1.2-0.1c-0.4-0.1-0.8-0.2-1.1-0.3c-0.4-0.1-0.7-0.3-1-0.5c-0.3-0.2-0.6-0.4-0.8-0.6l0.7-1.1
		c0.1-0.1,0.2-0.2,0.3-0.3c0.1-0.1,0.3-0.1,0.4-0.1c0.2,0,0.3,0,0.5,0.1c0.2,0.1,0.3,0.2,0.5,0.3c0.2,0.1,0.4,0.2,0.7,0.3
		c0.3,0.1,0.6,0.1,1.1,0.1c0.3,0,0.6,0,0.9-0.1c0.2-0.1,0.4-0.2,0.6-0.3c0.2-0.1,0.3-0.3,0.3-0.5c0.1-0.2,0.1-0.3,0.1-0.5
		c0-0.3-0.1-0.5-0.2-0.7c-0.2-0.2-0.4-0.3-0.7-0.5c-0.3-0.1-0.6-0.2-0.9-0.3c-0.3-0.1-0.7-0.2-1.1-0.3c-0.4-0.1-0.7-0.3-1.1-0.4
		c-0.3-0.2-0.7-0.4-0.9-0.6c-0.3-0.3-0.5-0.6-0.7-0.9c-0.2-0.4-0.2-0.8-0.2-1.3c0-0.5,0.1-0.9,0.3-1.4c0.2-0.4,0.5-0.8,0.8-1.1
		c0.4-0.3,0.8-0.6,1.4-0.8c0.6-0.2,1.2-0.3,1.9-0.3c0.8,0,1.5,0.1,2.2,0.4c0.7,0.3,1.2,0.6,1.7,1.1L195.8,136.2z"/>
	<path class="st0" d="M198.2,144.1c0-0.2,0-0.5,0.1-0.7c0.1-0.2,0.2-0.4,0.4-0.5c0.2-0.2,0.3-0.3,0.5-0.4c0.2-0.1,0.4-0.1,0.7-0.1
		c0.2,0,0.5,0,0.7,0.1c0.2,0.1,0.4,0.2,0.5,0.4c0.2,0.2,0.3,0.3,0.4,0.5c0.1,0.2,0.1,0.4,0.1,0.7c0,0.2,0,0.5-0.1,0.7
		c-0.1,0.2-0.2,0.4-0.4,0.5c-0.2,0.2-0.3,0.3-0.5,0.4c-0.2,0.1-0.4,0.1-0.7,0.1c-0.2,0-0.5,0-0.7-0.1c-0.2-0.1-0.4-0.2-0.5-0.4
		c-0.2-0.2-0.3-0.3-0.4-0.5C198.3,144.6,198.2,144.3,198.2,144.1z"/>
	<path class="st0" d="M221,131.6h-5v14h-3.1v-14h-5v-2.5H221V131.6z"/>
	<path class="st0" d="M222.1,140.1c0,0.6,0.2,1.1,0.3,1.6c0.2,0.4,0.4,0.8,0.7,1.1c0.3,0.3,0.6,0.5,1,0.6c0.4,0.1,0.8,0.2,1.3,0.2
		c0.5,0,0.9-0.1,1.2-0.2c0.3-0.1,0.6-0.2,0.9-0.4c0.2-0.1,0.5-0.2,0.7-0.4c0.2-0.1,0.4-0.2,0.5-0.2c0.2,0,0.4,0.1,0.5,0.3l0.8,1
		c-0.3,0.4-0.7,0.7-1.1,0.9c-0.4,0.2-0.8,0.4-1.2,0.6c-0.4,0.1-0.9,0.3-1.3,0.3c-0.4,0.1-0.9,0.1-1.3,0.1c-0.8,0-1.6-0.1-2.3-0.4
		c-0.7-0.3-1.3-0.7-1.8-1.2c-0.5-0.5-0.9-1.2-1.2-2c-0.3-0.8-0.4-1.7-0.4-2.7c0-0.8,0.1-1.6,0.4-2.3c0.3-0.7,0.6-1.3,1.1-1.8
		c0.5-0.5,1.1-0.9,1.8-1.2c0.7-0.3,1.5-0.5,2.4-0.5c0.7,0,1.4,0.1,2,0.4c0.6,0.2,1.2,0.6,1.6,1c0.5,0.5,0.8,1,1.1,1.7
		c0.3,0.7,0.4,1.4,0.4,2.3c0,0.4,0,0.7-0.1,0.9c-0.1,0.1-0.3,0.2-0.5,0.2H222.1z M227.5,138.4c0-0.4-0.1-0.7-0.2-1
		c-0.1-0.3-0.3-0.6-0.5-0.9c-0.2-0.2-0.5-0.4-0.8-0.6c-0.3-0.1-0.7-0.2-1.1-0.2c-0.8,0-1.5,0.2-1.9,0.7c-0.5,0.5-0.8,1.1-0.9,2
		H227.5z"/>
	<path class="st0" d="M240.6,136.4c-0.1,0.1-0.2,0.2-0.2,0.3c-0.1,0.1-0.2,0.1-0.3,0.1c-0.1,0-0.3,0-0.4-0.1
		c-0.1-0.1-0.3-0.2-0.5-0.3c-0.2-0.1-0.4-0.2-0.7-0.3c-0.3-0.1-0.6-0.1-1-0.1c-0.5,0-0.9,0.1-1.3,0.3c-0.4,0.2-0.7,0.4-0.9,0.8
		c-0.2,0.3-0.4,0.7-0.6,1.2c-0.1,0.5-0.2,1-0.2,1.6c0,0.6,0.1,1.2,0.2,1.7c0.1,0.5,0.3,0.9,0.6,1.2c0.3,0.3,0.6,0.6,0.9,0.8
		c0.4,0.2,0.8,0.3,1.2,0.3c0.5,0,0.8-0.1,1.1-0.2c0.3-0.1,0.5-0.2,0.7-0.4c0.2-0.1,0.4-0.3,0.5-0.4c0.1-0.1,0.3-0.2,0.5-0.2
		c0.2,0,0.4,0.1,0.5,0.3l0.8,1c-0.3,0.4-0.7,0.7-1,0.9c-0.4,0.2-0.7,0.4-1.1,0.6c-0.4,0.1-0.8,0.3-1.2,0.3c-0.4,0.1-0.8,0.1-1.2,0.1
		c-0.7,0-1.4-0.1-2-0.4c-0.6-0.3-1.2-0.7-1.7-1.2c-0.5-0.5-0.9-1.2-1.1-1.9c-0.3-0.8-0.4-1.6-0.4-2.6c0-0.9,0.1-1.7,0.4-2.4
		c0.2-0.7,0.6-1.4,1.1-1.9c0.5-0.5,1.1-1,1.8-1.3c0.7-0.3,1.5-0.5,2.5-0.5c0.9,0,1.6,0.1,2.3,0.4c0.7,0.3,1.3,0.7,1.8,1.2
		L240.6,136.4z"/>
	<path class="st0" d="M246,135.2c0.5-0.4,1-0.8,1.5-1c0.5-0.3,1.2-0.4,1.9-0.4c0.6,0,1.2,0.1,1.7,0.3c0.5,0.2,0.9,0.5,1.2,0.9
		c0.3,0.4,0.6,0.9,0.8,1.4c0.2,0.5,0.3,1.1,0.3,1.8v7.5h-2.8v-7.5c0-0.7-0.2-1.3-0.5-1.7c-0.3-0.4-0.8-0.6-1.5-0.6
		c-0.5,0-0.9,0.1-1.4,0.3c-0.4,0.2-0.8,0.5-1.2,0.9v8.5h-2.8v-17h2.8V135.2z"/>
	<path class="st0" d="M258.8,135.3c0.2-0.2,0.5-0.5,0.8-0.7c0.3-0.2,0.5-0.4,0.8-0.5c0.3-0.1,0.6-0.3,0.9-0.3
		c0.3-0.1,0.7-0.1,1.1-0.1c0.6,0,1.2,0.1,1.7,0.3c0.5,0.2,0.9,0.5,1.2,0.9c0.3,0.4,0.6,0.9,0.8,1.4c0.2,0.5,0.3,1.1,0.3,1.8v7.5
		h-2.8v-7.5c0-0.7-0.2-1.3-0.5-1.7c-0.3-0.4-0.8-0.6-1.5-0.6c-0.5,0-0.9,0.1-1.4,0.3c-0.4,0.2-0.8,0.5-1.2,0.9v8.5h-2.8v-11.7h1.7
		c0.4,0,0.6,0.2,0.7,0.5L258.8,135.3z"/>
	<path class="st0" d="M274.2,133.7c0.9,0,1.7,0.1,2.4,0.4c0.7,0.3,1.3,0.7,1.8,1.2c0.5,0.5,0.9,1.2,1.2,1.9c0.3,0.7,0.4,1.6,0.4,2.5
		c0,0.9-0.1,1.8-0.4,2.5c-0.3,0.7-0.7,1.4-1.2,1.9c-0.5,0.5-1.1,0.9-1.8,1.2c-0.7,0.3-1.5,0.4-2.4,0.4c-0.9,0-1.7-0.1-2.4-0.4
		c-0.7-0.3-1.3-0.7-1.8-1.2c-0.5-0.5-0.9-1.2-1.2-1.9c-0.3-0.7-0.4-1.6-0.4-2.5c0-0.9,0.1-1.8,0.4-2.5c0.3-0.7,0.7-1.4,1.2-1.9
		c0.5-0.5,1.1-0.9,1.8-1.2C272.6,133.9,273.4,133.7,274.2,133.7z M274.2,143.6c1,0,1.7-0.3,2.2-1c0.5-0.7,0.7-1.6,0.7-2.9
		c0-1.3-0.2-2.2-0.7-2.9c-0.5-0.7-1.2-1-2.2-1c-1,0-1.7,0.3-2.2,1c-0.5,0.7-0.7,1.6-0.7,2.9c0,1.3,0.2,2.2,0.7,2.9
		C272.5,143.3,273.2,143.6,274.2,143.6z"/>
	<path class="st0" d="M285.1,128.6v17h-2.8v-17H285.1z"/>
	<path class="st0" d="M293.1,133.7c0.9,0,1.7,0.1,2.4,0.4c0.7,0.3,1.3,0.7,1.8,1.2c0.5,0.5,0.9,1.2,1.2,1.9c0.3,0.7,0.4,1.6,0.4,2.5
		c0,0.9-0.1,1.8-0.4,2.5c-0.3,0.7-0.7,1.4-1.2,1.9c-0.5,0.5-1.1,0.9-1.8,1.2c-0.7,0.3-1.5,0.4-2.4,0.4c-0.9,0-1.7-0.1-2.4-0.4
		c-0.7-0.3-1.3-0.7-1.8-1.2c-0.5-0.5-0.9-1.2-1.2-1.9c-0.3-0.7-0.4-1.6-0.4-2.5c0-0.9,0.1-1.8,0.4-2.5c0.3-0.7,0.7-1.4,1.2-1.9
		c0.5-0.5,1.1-0.9,1.8-1.2C291.4,133.9,292.2,133.7,293.1,133.7z M293.1,143.6c1,0,1.7-0.3,2.2-1c0.5-0.7,0.7-1.6,0.7-2.9
		c0-1.3-0.2-2.2-0.7-2.9c-0.5-0.7-1.2-1-2.2-1c-1,0-1.7,0.3-2.2,1c-0.5,0.7-0.7,1.6-0.7,2.9c0,1.3,0.2,2.2,0.7,2.9
		C291.4,143.3,292.1,143.6,293.1,143.6z"/>
	<path class="st0" d="M311.3,134.3v1.1c0,0.3-0.2,0.5-0.6,0.6l-1.1,0.2c0.2,0.4,0.2,0.8,0.2,1.3c0,0.6-0.1,1.1-0.3,1.6
		c-0.2,0.5-0.6,0.9-1,1.2c-0.4,0.3-0.9,0.6-1.5,0.8c-0.6,0.2-1.2,0.3-1.8,0.3c-0.2,0-0.5,0-0.7,0c-0.2,0-0.4-0.1-0.6-0.1
		c-0.4,0.2-0.5,0.5-0.5,0.7c0,0.2,0.1,0.4,0.3,0.5c0.2,0.1,0.5,0.2,0.9,0.2c0.4,0,0.8,0.1,1.2,0.1c0.5,0,0.9,0,1.4,0.1
		c0.5,0,1,0.1,1.4,0.2c0.5,0.1,0.9,0.2,1.2,0.5c0.4,0.2,0.6,0.5,0.9,0.8c0.2,0.4,0.3,0.8,0.3,1.4c0,0.5-0.1,1-0.4,1.5
		c-0.3,0.5-0.6,0.9-1.1,1.3c-0.5,0.4-1.1,0.7-1.8,0.9c-0.7,0.2-1.5,0.3-2.4,0.3c-0.9,0-1.7-0.1-2.3-0.3c-0.7-0.2-1.2-0.4-1.6-0.7
		c-0.4-0.3-0.8-0.6-1-1c-0.2-0.4-0.3-0.8-0.3-1.2c0-0.5,0.2-1,0.5-1.4c0.3-0.4,0.8-0.7,1.4-0.9c-0.3-0.2-0.6-0.4-0.7-0.6
		c-0.2-0.3-0.3-0.6-0.3-1.1c0-0.2,0-0.4,0.1-0.5c0.1-0.2,0.2-0.4,0.3-0.6c0.1-0.2,0.3-0.4,0.5-0.5c0.2-0.2,0.4-0.3,0.7-0.4
		c-0.6-0.3-1.1-0.7-1.4-1.3c-0.3-0.5-0.5-1.2-0.5-1.9c0-0.6,0.1-1.1,0.3-1.6c0.2-0.5,0.6-0.9,1-1.2c0.4-0.3,0.9-0.6,1.5-0.8
		c0.6-0.2,1.2-0.3,1.9-0.3c0.5,0,1,0.1,1.4,0.2c0.4,0.1,0.8,0.3,1.2,0.5H311.3z M308.4,146.2c0-0.2-0.1-0.4-0.2-0.6
		c-0.1-0.1-0.3-0.3-0.6-0.3c-0.2-0.1-0.5-0.1-0.8-0.2c-0.3,0-0.7-0.1-1-0.1c-0.4,0-0.7,0-1.1-0.1c-0.4,0-0.7,0-1.1-0.1
		c-0.3,0.2-0.6,0.4-0.8,0.6c-0.2,0.2-0.3,0.5-0.3,0.8c0,0.2,0.1,0.4,0.2,0.6c0.1,0.2,0.3,0.3,0.5,0.5c0.2,0.1,0.5,0.2,0.9,0.3
		c0.4,0.1,0.8,0.1,1.3,0.1c0.5,0,1,0,1.4-0.1c0.4-0.1,0.7-0.2,0.9-0.3c0.2-0.1,0.4-0.3,0.5-0.5C308.4,146.6,308.4,146.4,308.4,146.2
		z M305.2,139.5c0.4,0,0.7,0,0.9-0.1c0.3-0.1,0.5-0.2,0.6-0.4c0.2-0.2,0.3-0.4,0.4-0.6c0.1-0.2,0.1-0.5,0.1-0.8c0-0.6-0.2-1-0.5-1.4
		c-0.3-0.3-0.9-0.5-1.6-0.5s-1.2,0.2-1.6,0.5c-0.3,0.3-0.5,0.8-0.5,1.4c0,0.3,0,0.5,0.1,0.8c0.1,0.2,0.2,0.4,0.4,0.6
		c0.2,0.2,0.4,0.3,0.7,0.4C304.6,139.4,304.9,139.5,305.2,139.5z"/>
	<path class="st0" d="M316.4,130.5c0,0.2,0,0.5-0.1,0.7c-0.1,0.2-0.2,0.4-0.4,0.6c-0.2,0.2-0.4,0.3-0.6,0.4
		c-0.2,0.1-0.5,0.1-0.7,0.1c-0.2,0-0.5,0-0.7-0.1c-0.2-0.1-0.4-0.2-0.6-0.4c-0.2-0.2-0.3-0.3-0.4-0.6c-0.1-0.2-0.1-0.4-0.1-0.7
		c0-0.3,0-0.5,0.1-0.7s0.2-0.4,0.4-0.6c0.2-0.2,0.3-0.3,0.6-0.4c0.2-0.1,0.4-0.1,0.7-0.1c0.3,0,0.5,0,0.7,0.1
		c0.2,0.1,0.4,0.2,0.6,0.4c0.2,0.2,0.3,0.4,0.4,0.6C316.3,130,316.4,130.2,316.4,130.5z M316,133.9v11.7h-2.8v-11.7H316z"/>
	<path class="st0" d="M321,140.1c0,0.6,0.2,1.1,0.3,1.6c0.2,0.4,0.4,0.8,0.7,1.1c0.3,0.3,0.6,0.5,1,0.6c0.4,0.1,0.8,0.2,1.3,0.2
		c0.5,0,0.9-0.1,1.2-0.2c0.3-0.1,0.6-0.2,0.9-0.4c0.2-0.1,0.5-0.2,0.7-0.4c0.2-0.1,0.4-0.2,0.5-0.2c0.2,0,0.4,0.1,0.5,0.3l0.8,1
		c-0.3,0.4-0.7,0.7-1.1,0.9c-0.4,0.2-0.8,0.4-1.2,0.6c-0.4,0.1-0.9,0.3-1.3,0.3c-0.4,0.1-0.9,0.1-1.3,0.1c-0.8,0-1.6-0.1-2.3-0.4
		c-0.7-0.3-1.3-0.7-1.8-1.2c-0.5-0.5-0.9-1.2-1.2-2c-0.3-0.8-0.4-1.7-0.4-2.7c0-0.8,0.1-1.6,0.4-2.3c0.3-0.7,0.6-1.3,1.1-1.8
		c0.5-0.5,1.1-0.9,1.8-1.2c0.7-0.3,1.5-0.5,2.4-0.5c0.7,0,1.4,0.1,2,0.4c0.6,0.2,1.2,0.6,1.6,1c0.5,0.5,0.8,1,1.1,1.7
		c0.3,0.7,0.4,1.4,0.4,2.3c0,0.4,0,0.7-0.1,0.9c-0.1,0.1-0.3,0.2-0.5,0.2H321z M326.4,138.4c0-0.4-0.1-0.7-0.2-1
		c-0.1-0.3-0.3-0.6-0.5-0.9c-0.2-0.2-0.5-0.4-0.8-0.6c-0.3-0.1-0.7-0.2-1.1-0.2c-0.8,0-1.5,0.2-1.9,0.7c-0.5,0.5-0.8,1.1-0.9,2
		H326.4z"/>
	<path class="st0" d="M338.3,136.2c-0.1,0.1-0.2,0.2-0.2,0.3c-0.1,0-0.2,0.1-0.3,0.1c-0.1,0-0.3,0-0.4-0.1c-0.2-0.1-0.3-0.2-0.5-0.3
		c-0.2-0.1-0.4-0.2-0.7-0.3c-0.3-0.1-0.6-0.1-0.9-0.1c-0.6,0-1,0.1-1.3,0.4s-0.5,0.5-0.5,0.9c0,0.3,0.1,0.5,0.2,0.6
		c0.2,0.2,0.4,0.3,0.7,0.5c0.3,0.1,0.6,0.2,0.9,0.3c0.3,0.1,0.7,0.2,1,0.3c0.4,0.1,0.7,0.3,1,0.4c0.3,0.2,0.7,0.4,0.9,0.6
		c0.3,0.2,0.5,0.5,0.7,0.9c0.2,0.3,0.2,0.7,0.2,1.2c0,0.6-0.1,1.1-0.3,1.6c-0.2,0.5-0.5,0.9-0.9,1.2c-0.4,0.3-0.9,0.6-1.5,0.8
		c-0.6,0.2-1.3,0.3-2,0.3c-0.4,0-0.8,0-1.2-0.1c-0.4-0.1-0.8-0.2-1.1-0.3c-0.4-0.1-0.7-0.3-1-0.5c-0.3-0.2-0.6-0.4-0.8-0.6l0.7-1.1
		c0.1-0.1,0.2-0.2,0.3-0.3c0.1-0.1,0.3-0.1,0.4-0.1c0.2,0,0.3,0,0.5,0.1c0.2,0.1,0.3,0.2,0.5,0.3c0.2,0.1,0.4,0.2,0.7,0.3
		c0.3,0.1,0.6,0.1,1.1,0.1c0.3,0,0.6,0,0.9-0.1c0.2-0.1,0.4-0.2,0.6-0.3c0.2-0.1,0.3-0.3,0.3-0.5c0.1-0.2,0.1-0.3,0.1-0.5
		c0-0.3-0.1-0.5-0.2-0.7c-0.2-0.2-0.4-0.3-0.7-0.5c-0.3-0.1-0.6-0.2-0.9-0.3c-0.3-0.1-0.7-0.2-1.1-0.3c-0.4-0.1-0.7-0.3-1.1-0.4
		c-0.3-0.2-0.7-0.4-0.9-0.6c-0.3-0.3-0.5-0.6-0.7-0.9c-0.2-0.4-0.2-0.8-0.2-1.3c0-0.5,0.1-0.9,0.3-1.4c0.2-0.4,0.5-0.8,0.8-1.1
		c0.4-0.3,0.8-0.6,1.4-0.8c0.6-0.2,1.2-0.3,1.9-0.3c0.8,0,1.5,0.1,2.2,0.4c0.7,0.3,1.2,0.6,1.7,1.1L338.3,136.2z"/>
</g>
</svg>
